<svg xmlns="http://www.w3.org/2000/svg" viewBox="0 0 512 512">
    <style>
        .primary { fill: #1a365d; }
        .secondary { fill: #2c5282; }
    </style>
    <path class="secondary" d="M256 32C132.3 32 32 132.3 32 256s100.3 224 224 224 224-100.3 224-224S379.7 32 256 32zm0 384c-88.2 0-160-71.8-160-160S167.8 96 256 96s160 71.8 160 160-71.8 160-160 160z"/>
    <path class="primary" d="M256 128c-70.7 0-128 57.3-128 128s57.3 128 128 128 128-57.3 128-128-57.3-128-128-128zm64 144h-48v48c0 8.8-7.2 16-16 16s-16-7.2-16-16v-48h-48c-8.8 0-16-7.2-16-16s7.2-16 16-16h48v-48c0-8.8 7.2-16 16-16s16 7.2 16 16v48h48c8.8 0 16 7.2 16 16s-7.2 16-16 16z"/>
</svg>
